<?xml version="1.0" encoding="UTF-8" standalone="no"?>
<svg
   width="24"
   height="24"
   viewBox="0 0 24 24"
   version="1.1"
   id="svg178"
   sodipodi:docname="mdi--format-list-numbered-lime-on-blue.svg"
   inkscape:version="1.2.2 (b0a8486541, 2022-12-01)"
   xmlns:inkscape="http://www.inkscape.org/namespaces/inkscape"
   xmlns:sodipodi="http://sodipodi.sourceforge.net/DTD/sodipodi-0.dtd"
   xmlns="http://www.w3.org/2000/svg"
   xmlns:svg="http://www.w3.org/2000/svg">
  <defs
     id="defs182" />
  <sodipodi:namedview
     id="namedview180"
     pagecolor="#ffffff"
     bordercolor="#000000"
     borderopacity="0.25"
     inkscape:showpageshadow="2"
     inkscape:pageopacity="0.0"
     inkscape:pagecheckerboard="0"
     inkscape:deskcolor="#d1d1d1"
     showgrid="false"
     inkscape:zoom="18.5"
     inkscape:cx="10.162162"
     inkscape:cy="12"
     inkscape:window-width="1536"
     inkscape:window-height="827"
     inkscape:window-x="0"
     inkscape:window-y="0"
     inkscape:window-maximized="1"
     inkscape:current-layer="svg178" />
  <path
     d="M0 0h24v24H0z"
     fill="none"
     id="path174"
     style="fill:#054556;fill-opacity:1" />
  <path
     fill="currentColor"
     d="M7 13v-2h14v2zm0 6v-2h14v2zM7 7V5h14v2zM3 8V5H2V4h2v4zm-1 9v-1h3v4H2v-1h2v-.5H3v-1h1V17zm2.25-7a.75.75 0 0 1 .75.75c0 .2-.08.39-.21.52L3.12 13H5v1H2v-.92L4 11H2v-1z"
     id="path176"
     style="fill:#1dca8e;fill-opacity:1" />
</svg>
